<svg width="20" height="24" viewBox="0 0 20 24" fill="none" xmlns="http://www.w3.org/2000/svg">
<path d="M17.7752 7.55868C17.7271 6.98094 17.4863 6.45135 17.1012 6.0662C16.716 5.68104 16.2105 5.44032 15.6087 5.44032H14.3329V4.333C14.3329 3.12939 13.8514 2.04614 13.0571 1.27583C12.2627 0.481444 11.1794 0 9.99988 0C8.79627 0 7.71302 0.481444 6.94271 1.27583C6.14833 2.04614 5.66688 3.12939 5.66688 4.333V5.44032H4.39106C3.78925 5.44032 3.28374 5.68104 2.89858 6.0662C2.51342 6.45135 2.2727 6.98094 2.22456 7.55868L0.94873 21.8094C0.94873 21.8816 0.94873 21.9539 0.94873 21.9779C0.94873 22.5075 1.16538 23.013 1.55054 23.3741C1.91162 23.7111 2.39306 23.9519 2.89858 24H2.92265C2.99487 24 3.06709 24 3.11523 24H16.8845C16.9327 24 17.0049 24 17.0771 24C17.6067 23.9519 18.0881 23.7111 18.4492 23.3741C18.8344 23.013 19.051 22.5075 19.051 21.9539C19.051 21.9057 19.051 21.8576 19.051 21.7854L17.7752 7.55868ZM6.99086 4.333C6.99086 3.49047 7.32787 2.74423 7.88153 2.19057C8.43519 1.63691 9.18143 1.2999 10.024 1.2999C10.8665 1.2999 11.6127 1.63691 12.1664 2.19057C12.72 2.74423 13.0571 3.49047 13.0571 4.333V5.44032H6.99086V4.333ZM17.703 21.9779C17.703 22.1705 17.6308 22.339 17.4863 22.4594C17.3419 22.6038 17.1253 22.7001 16.9327 22.7242C16.9327 22.7242 16.9086 22.7242 16.8605 22.7242H3.11523C3.06709 22.7242 3.04301 22.7242 3.04301 22.7242H3.01894C2.80229 22.7001 2.60971 22.6038 2.46528 22.4594C2.32085 22.339 2.24863 22.1705 2.24863 21.9779V21.9057L3.52446 7.67904C3.54853 7.41424 3.66889 7.17352 3.8374 7.00502C3.98183 6.86058 4.17441 6.76429 4.39106 6.76429H5.66688V9.7011C5.66688 10.0622 5.95575 10.3511 6.31683 10.3511C6.67792 10.3511 6.96678 10.0622 6.96678 9.7011V6.76429H12.9848V9.7011C12.9848 10.0622 13.2737 10.3511 13.6348 10.3511C13.9959 10.3511 14.2847 10.0622 14.2847 9.7011V6.76429H15.5606C15.7772 6.76429 15.9698 6.86058 16.1142 7.00502C16.2827 7.17352 16.4031 7.41424 16.4272 7.67904L17.703 21.9298V21.9779Z" fill="white"/>
</svg>
