<svg width="12" height="13" viewBox="0 0 12 13" fill="none" xmlns="http://www.w3.org/2000/svg">
<g clip-path="url(#clip0)">
<path d="M6 12.2052C4.39737 12.2052 2.89059 11.5843 1.75735 10.457C0.624115 9.32977 0 7.83093 0 6.23673C0 4.64254 0.624115 3.14369 1.75735 2.01642C2.89059 0.889141 4.39737 0.268311 6 0.268311C7.60263 0.268311 9.10941 0.889141 10.2426 2.01642C11.3759 3.14369 12 4.64254 12 6.23673C12 7.83093 11.3759 9.32977 10.2426 10.457C9.10941 11.5843 7.60263 12.2052 6 12.2052ZM6 1.20088C3.20856 1.20088 0.9375 3.45998 0.9375 6.23673C0.9375 9.01348 3.20856 11.2726 6 11.2726C8.79144 11.2726 11.0625 9.01348 11.0625 6.23673C11.0625 3.45998 8.79144 1.20088 6 1.20088ZM8.46936 8.6931L7.80643 8.03365C6.81033 9.0245 5.18967 9.0245 4.19357 8.03365C3.19748 7.0428 3.19748 5.43066 4.19357 4.43981C5.18967 3.44896 6.81033 3.44896 7.80643 4.43981L8.46936 3.78037C7.1077 2.42596 4.89221 2.42596 3.53064 3.78037C2.16907 5.13486 2.16907 7.33869 3.53064 8.6931C4.21143 9.3703 5.10571 9.7089 6 9.7089C6.8942 9.7089 7.78857 9.3703 8.46936 8.6931Z" fill="#4C5054"/>
</g>
<defs>
<clipPath id="clip0">
<rect width="12" height="11.9368" fill="white" transform="translate(0 0.268311)"/>
</clipPath>
</defs>
</svg>
