<svg width="10" height="11" viewBox="0 0 10 11" fill="none" xmlns="http://www.w3.org/2000/svg">
<path fill-rule="evenodd" clip-rule="evenodd" d="M5.00016 1.12354C2.69898 1.12354 0.833496 2.9792 0.833496 5.26827C0.833496 7.55735 2.69898 9.41301 5.00016 9.41301C7.30135 9.41301 9.16683 7.55735 9.16683 5.26827C9.16683 4.16902 8.72784 3.11479 7.94644 2.3375C7.16504 1.56021 6.10523 1.12354 5.00016 1.12354ZM5.00016 8.58401C3.15921 8.58401 1.66683 7.09948 1.66683 5.26822C1.66683 3.43696 3.15921 1.95243 5.00016 1.95243C6.84111 1.95243 8.3335 3.43696 8.3335 5.26822C8.3335 6.14762 7.98231 6.99101 7.35719 7.61284C6.73206 8.23467 5.88422 8.58401 5.00016 8.58401ZM5.2085 3.19585H3.9585C3.72838 3.19585 3.54183 3.38142 3.54183 3.61032V6.92612C3.54183 7.15502 3.72838 7.34059 3.9585 7.34059C4.18862 7.34059 4.37516 7.15502 4.37516 6.92612V6.09717H5.2085C5.43862 6.09717 5.62516 6.28273 5.62516 6.51164V6.92612C5.62516 7.15502 5.81171 7.34059 6.04183 7.34059C6.27195 7.34059 6.4585 7.15502 6.4585 6.92612V6.51164C6.45666 6.20491 6.34091 5.90968 6.1335 5.68269C6.34091 5.45571 6.45666 5.16048 6.4585 4.85375V4.43927C6.4585 3.75255 5.89885 3.19585 5.2085 3.19585ZM5.62516 4.85385C5.62516 5.08276 5.43861 5.26832 5.2085 5.26832H4.37516V4.0249H5.2085C5.43861 4.0249 5.62516 4.21047 5.62516 4.43938V4.85385Z" fill="#4C5054"/>
</svg>
