<svg width="10" height="11" viewBox="0 0 10 11" fill="none" xmlns="http://www.w3.org/2000/svg">
<path fill-rule="evenodd" clip-rule="evenodd" d="M3.95817 3.1958H1.45817C1.22805 3.1958 1.0415 3.38137 1.0415 3.61027C1.0415 3.83918 1.22805 4.02475 1.45817 4.02475H2.2915V6.92607C2.2915 7.15497 2.47805 7.34054 2.70817 7.34054C2.93829 7.34054 3.12484 7.15497 3.12484 6.92607V4.02475H3.95817C4.18829 4.02475 4.37484 3.83918 4.37484 3.61027C4.37484 3.38137 4.18829 3.1958 3.95817 3.1958ZM8.92482 3.45287C8.88254 3.35159 8.80164 3.27111 8.69982 3.22905C8.59838 3.1876 8.4846 3.1876 8.38316 3.22905C8.33201 3.24878 8.28528 3.27836 8.24566 3.31609L7.08316 4.47662L5.92066 3.31609C5.88103 3.27836 5.83431 3.24878 5.78316 3.22905C5.68172 3.1876 5.56793 3.1876 5.46649 3.22905C5.36468 3.27111 5.28377 3.35159 5.24149 3.45287C5.22014 3.5027 5.20882 3.55621 5.20816 3.61037V6.92616C5.20816 7.15507 5.39471 7.34063 5.62483 7.34063C5.85494 7.34063 6.04149 7.15507 6.04149 6.92616V4.60925L6.78733 5.3553C6.86556 5.43377 6.97206 5.4779 7.08316 5.4779C7.19426 5.4779 7.30076 5.43377 7.37899 5.3553L8.12482 4.60925V6.92616C8.12482 7.15507 8.31137 7.34063 8.54149 7.34063C8.77161 7.34063 8.95816 7.15507 8.95816 6.92616V3.61037C8.9575 3.55621 8.94618 3.5027 8.92482 3.45287Z" fill="#4C5054"/>
</svg>
